<svg width="42" height="42" viewBox="0 0 42 42" fill="none" xmlns="http://www.w3.org/2000/svg">
<path d="M4 21C4 13.1635 4 9.2435 6.43425 6.80925C8.8685 4.375 12.7867 4.375 20.625 4.375C28.4615 4.375 32.3815 4.375 34.8157 6.80925C37.25 9.2435 37.25 13.1617 37.25 21C37.25 28.8365 37.25 32.7565 34.8157 35.1907C32.3815 37.625 28.4633 37.625 20.625 37.625C12.7885 37.625 8.8685 37.625 6.43425 35.1907C4 32.7565 4 28.8383 4 21Z" stroke="#97AFE3" stroke-width="4" stroke-linecap="round" stroke-linejoin="round"/>
<path d="M27.625 21H13.625M27.625 21C27.625 19.775 24.1355 17.486 23.25 16.625M27.625 21C27.625 22.225 24.1355 24.514 23.25 25.375" stroke="#97AFE3" stroke-width="4" stroke-linecap="round" stroke-linejoin="round"/>
</svg>
