<svg width="42" height="42" viewBox="0 0 42 42" fill="none" xmlns="http://www.w3.org/2000/svg">
<g clip-path="url(#clip0_2_49)">
<path d="M8.20581 29.6924L8.20564 29.6925C6.51071 30.6941 5.46648 31.677 4.84176 32.5142C4.22544 33.3403 4 34.0501 4 34.5C4 35.4283 4.36875 36.3185 5.02513 36.9749C5.6815 37.6313 6.57174 38 7.5 38H34.5C35.4283 38 36.3185 37.6313 36.9749 36.9749C37.6313 36.3185 38 35.4283 38 34.5C38 34.0501 37.7746 33.3403 37.1582 32.5142C36.5335 31.677 35.4893 30.6941 33.7944 29.6925L33.7942 29.6924C30.6569 27.8403 26.1218 26.5 21 26.5C15.8782 26.5 11.3431 27.8403 8.20581 29.6924ZM25.5962 15.0962C26.8152 13.8772 27.5 12.2239 27.5 10.5C27.5 8.77609 26.8152 7.12279 25.5962 5.90381C24.3772 4.68482 22.7239 4 21 4C19.2761 4 17.6228 4.68482 16.4038 5.90381C15.1848 7.12279 14.5 8.77609 14.5 10.5C14.5 12.2239 15.1848 13.8772 16.4038 15.0962C17.6228 16.3152 19.2761 17 21 17C22.7239 17 24.3772 16.3152 25.5962 15.0962ZM31 10.5C31 13.1522 29.9464 15.6957 28.0711 17.5711C26.1957 19.4464 23.6522 20.5 21 20.5C18.3478 20.5 15.8043 19.4464 13.9289 17.5711C12.0536 15.6957 11 13.1522 11 10.5C11 7.84784 12.0536 5.3043 13.9289 3.42893C15.8043 1.55357 18.3478 0.5 21 0.5C23.6522 0.5 26.1957 1.55357 28.0711 3.42893C29.9464 5.3043 31 7.84784 31 10.5ZM0.5 34.5C0.5 31.7652 2.67342 28.897 6.42319 26.6804C10.1458 24.4798 15.3066 23 21 23C26.6934 23 31.8542 24.4798 35.5768 26.6804C39.3266 28.897 41.5 31.7652 41.5 34.5C41.5 36.3565 40.7625 38.137 39.4497 39.4497C38.137 40.7625 36.3565 41.5 34.5 41.5H7.5C5.64348 41.5 3.86301 40.7625 2.55025 39.4497C1.2375 38.137 0.5 36.3565 0.5 34.5Z" fill="#97AFE3" stroke="#97AFE3"/>
</g>
<defs>
<clipPath id="clip0_2_49">
<rect width="42" height="42" fill="white"/>
</clipPath>
</defs>
</svg>
