<svg width="68" height="68" viewBox="0 0 68 68" fill="none" xmlns="http://www.w3.org/2000/svg">
<circle cx="34" cy="34" r="31.5" fill="#606060" stroke="#97AFE3" stroke-width="5"/>
<path d="M30.7498 37.25L19.9582 32.875C19.5971 32.7362 19.3332 32.5212 19.1665 32.23C18.9998 31.9389 18.9165 31.64 18.9165 31.3334C18.9165 31.0267 19.0071 30.7284 19.1882 30.4384C19.3693 30.1484 19.6398 29.9328 19.9998 29.7917L45.5832 20.2917C45.9165 20.1528 46.2359 20.125 46.5415 20.2084C46.8471 20.2917 47.1109 20.4445 47.3332 20.6667C47.5554 20.8889 47.7082 21.1528 47.7915 21.4584C47.8748 21.7639 47.8471 22.0834 47.7082 22.4167L38.2082 48C38.0693 48.3612 37.8543 48.6323 37.5632 48.8134C37.2721 48.9945 36.9732 49.0845 36.6665 49.0834C36.3598 49.0823 36.0615 48.9989 35.7715 48.8334C35.4815 48.6678 35.2659 48.4039 35.1248 48.0417L30.7498 37.25Z" fill="#97AFE3"/>
</svg>
