<svg width="24" height="24" viewBox="0 0 24 24" fill="none" xmlns="http://www.w3.org/2000/svg">
<path d="M5 2.15039H19C19.2254 2.15039 19.4412 2.24001 19.6006 2.39941C19.76 2.55882 19.8496 2.77457 19.8496 3V22.1436C19.8496 22.206 19.8334 22.2675 19.8018 22.3213C19.77 22.3752 19.7246 22.4199 19.6699 22.4502C19.6152 22.4805 19.5528 22.4949 19.4902 22.4932C19.459 22.4923 19.4281 22.4875 19.3984 22.4785L19.3135 22.4404V22.4395L12.0801 17.9033L12 17.8525L11.9199 17.9033L4.68652 22.4385V22.4395C4.63358 22.4727 4.57226 22.4904 4.50977 22.4922C4.44741 22.4939 4.38569 22.4793 4.33105 22.4492C4.27632 22.419 4.23004 22.3741 4.19824 22.3203C4.1666 22.2666 4.15044 22.2049 4.15039 22.1426V3C4.15039 2.77457 4.24001 2.55882 4.39941 2.39941C4.5389 2.25993 4.72143 2.17361 4.91602 2.1543L5 2.15039ZM5.84961 19.7031L6.08008 19.5596L12 15.8477L17.9199 19.5596L18.1504 19.7031V3.84961H5.84961V19.7031Z" fill="black" stroke="white" stroke-width="0.3"/>
</svg>
