<svg width="22" height="19" viewBox="0 0 22 19" fill="none" xmlns="http://www.w3.org/2000/svg">
<path d="M11 3.01084L10.4474 3.53874C10.519 3.61243 10.6049 3.67104 10.6998 3.71107C10.7947 3.75111 10.8968 3.77174 11 3.77174C11.1032 3.77174 11.2053 3.75111 11.3002 3.71107C11.3951 3.67104 11.481 3.61243 11.5526 3.53874L11 3.01084ZM8.36614 16.0275C6.81488 14.8144 5.11935 13.6297 3.77377 12.1272C2.45581 10.6532 1.53488 8.93444 1.53488 6.70307H0C0 9.40955 1.13581 11.4744 2.6267 13.1383C4.08995 14.7728 5.95637 16.0824 7.41553 17.2234L8.36614 16.0275ZM1.53488 6.70307C1.53488 4.52042 2.77814 2.68903 4.47572 1.9185C6.12521 1.17031 8.34158 1.36827 10.4474 3.53874L11.5526 2.48396C9.05581 -0.0915631 6.15386 -0.516925 3.83721 0.533791C1.57172 1.56217 0 3.94989 0 6.70307H1.53488ZM7.41553 17.2234C7.94046 17.6336 8.50326 18.0701 9.07321 18.401C9.64316 18.732 10.294 19 11 19V17.4772C10.6828 17.4772 10.3103 17.3554 9.84781 17.0864C9.38428 16.8184 8.90437 16.4488 8.36614 16.0275L7.41553 17.2234ZM14.5845 17.2234C16.0436 16.0813 17.91 14.7738 19.3733 13.1383C20.8642 11.4734 22 9.40955 22 6.70307H20.4651C20.4651 8.93444 19.5442 10.6532 18.2262 12.1272C16.8807 13.6297 15.1851 14.8144 13.6339 16.0275L14.5845 17.2234ZM22 6.70307C22 3.94989 20.4293 1.56217 18.1628 0.533791C15.8461 -0.516925 12.9462 -0.0915631 10.4474 2.48295L11.5526 3.53874C13.6584 1.36929 15.8748 1.17031 17.5243 1.9185C19.2219 2.68903 20.4651 4.51941 20.4651 6.70307H22ZM13.6339 16.0275C13.0956 16.4488 12.6157 16.8184 12.1522 17.0864C11.6887 17.3544 11.3172 17.4772 11 17.4772V19C11.706 19 12.3568 18.731 12.9268 18.401C13.4978 18.0701 14.0595 17.6336 14.5845 17.2234L13.6339 16.0275Z" fill="black"/>
</svg>
