<svg width="33" height="33" viewBox="0 0 33 33" fill="none" xmlns="http://www.w3.org/2000/svg">
<path d="M27.7584 9.64164C28.0675 9.65345 28.3674 9.75081 28.6251 9.92185C28.8508 10.0717 29.037 10.2734 29.1676 10.5094L29.22 10.613C29.3517 10.8931 29.4004 11.205 29.3618 11.5121C29.328 11.7809 29.2289 12.037 29.0724 12.2568L29.0013 12.3482L29.001 12.3491L17.0941 27.0898L17.0925 27.0913C16.8898 27.3552 16.6117 27.5525 16.2957 27.6567C15.9798 27.7607 15.6397 27.7672 15.32 27.6756L15.2109 27.6355C14.9198 27.5295 14.664 27.3446 14.4719 27.1016C14.3036 26.8888 14.1902 26.6386 14.1404 26.3731L14.1232 26.2585L13.2452 17.9561L13.241 17.9223L13.2176 17.8981L7.4842 11.8578C7.26291 11.6139 7.11893 11.31 7.06976 10.9843C7.02049 10.6577 7.06909 10.3233 7.20946 10.0244C7.34983 9.72559 7.57551 9.47521 7.85808 9.30457C8.10558 9.15515 8.387 9.07293 8.6746 9.0648L8.79816 9.0655L8.79908 9.06583L27.759 9.64289L27.7584 9.64164ZM26.2131 12.9076L15.0197 18.0822L14.9542 18.1132L14.9622 18.1848L15.829 25.9462L15.8563 26.1862L16.0066 25.998L26.3335 13.0611L26.2131 12.9076ZM25.4845 11.2246L8.93529 10.7214L8.69327 10.7146L8.85967 10.8903L14.2155 16.568L14.2649 16.6205L25.5235 11.4158L25.4845 11.2246Z" fill="black" stroke="white" stroke-width="0.2"/>
</svg>
