<svg width="68" height="68" viewBox="0 0 68 68" fill="none" xmlns="http://www.w3.org/2000/svg">
<circle cx="34" cy="34" r="31.5" fill="#606060" stroke="#97AFE3" stroke-width="5"/>
<path d="M50.1 31.0833L35.1 17.75C34.7959 17.4828 34.4049 17.3354 34 17.3354C33.5952 17.3354 33.2042 17.4828 32.9 17.75L17.9 31.0833C17.6451 31.3089 17.4653 31.607 17.3849 31.9378C17.3044 32.2685 17.3272 32.6159 17.45 32.9333C17.5709 33.2466 17.7835 33.516 18.0601 33.7063C18.3367 33.8967 18.6643 33.999 19 34H20.6667V49C20.6667 49.442 20.8423 49.866 21.1549 50.1785C21.4674 50.4911 21.8913 50.6667 22.3334 50.6667H45.6667C46.1087 50.6667 46.5327 50.4911 46.8452 50.1785C47.1578 49.866 47.3334 49.442 47.3334 49V34H49C49.3358 33.999 49.6634 33.8967 49.94 33.7063C50.2165 33.516 50.4292 33.2466 50.55 32.9333C50.6729 32.6159 50.6957 32.2685 50.6152 31.9378C50.5348 31.607 50.355 31.3089 50.1 31.0833ZM35.6667 47.3333H32.3334V42.3333C32.3334 41.8913 32.509 41.4674 32.8215 41.1548C33.1341 40.8423 33.558 40.6667 34 40.6667C34.4421 40.6667 34.866 40.8423 35.1785 41.1548C35.4911 41.4674 35.6667 41.8913 35.6667 42.3333V47.3333ZM44 47.3333H39V42.3333C39 41.0073 38.4733 39.7355 37.5356 38.7978C36.5979 37.8601 35.3261 37.3333 34 37.3333C32.674 37.3333 31.4022 37.8601 30.4645 38.7978C29.5268 39.7355 29 41.0073 29 42.3333V47.3333H24V34H44V47.3333ZM23.3834 30.6667L34 21.2333L44.6167 30.6667H23.3834Z" fill="#97AFE3"/>
</svg>
