<svg width="68" height="68" viewBox="0 0 68 68" fill="none" xmlns="http://www.w3.org/2000/svg">
<circle cx="34" cy="34" r="31.5" fill="#606060" stroke="#97AFE3" stroke-width="5"/>
<g clip-path="url(#clip0_52_22)">
<path d="M47.5588 29.2463C45.2738 29.2463 44.0038 30.94 43.7376 32.7763H51.4213C51.2126 31.025 49.9751 29.2525 47.5601 29.2525L47.5588 29.2463ZM43.7951 35.2838C44.1863 37.21 45.7813 38.5638 48.0151 38.5638C49.2188 38.5638 50.9638 38.115 51.9851 37.04L53.9451 39.2938C52.1751 41.1425 49.5251 41.67 47.7151 41.67C43.3138 41.67 39.8838 38.4913 39.8838 33.9863C39.8838 29.7675 43.0401 26.2913 47.5001 26.2913C51.8101 26.2913 55.0001 29.5913 55.0001 33.9613V35.2363H43.7951V35.2838ZM32.9813 41.6638V32.1775C32.9813 30.5575 32.2576 29.6188 30.7476 29.6188C29.3938 29.6188 28.4963 30.595 27.8888 31.2988V41.695H23.9701V32.1963C23.9701 30.5675 23.2801 29.645 21.7751 29.645C20.4213 29.645 19.4838 30.6213 18.9113 31.325V41.7213H14.9976V26.5125H18.9176V28.4263C19.5813 27.6575 21.0838 26.33 23.4288 26.33C25.5126 26.33 26.9238 27.2038 27.5551 28.98C28.4338 27.7113 30.0551 26.33 32.4051 26.33C35.2438 26.33 36.8913 28.01 36.8913 31.265V41.67H32.9713L32.9776 41.6563L32.9813 41.6638Z" fill="#97AFE3"/>
</g>
<defs>
<clipPath id="clip0_52_22">
<rect width="40" height="40" fill="white" transform="translate(15 14)"/>
</clipPath>
</defs>
</svg>
