<svg width="68" height="68" viewBox="0 0 68 68" fill="none" xmlns="http://www.w3.org/2000/svg">
<circle cx="34" cy="34" r="31.5" stroke="#97AFE3" stroke-width="5"/>
<path d="M30.7501 37.25L19.9584 32.875C19.5973 32.7362 19.3334 32.5212 19.1667 32.23C19.0001 31.9389 18.9167 31.64 18.9167 31.3334C18.9167 31.0267 19.0073 30.7284 19.1884 30.4384C19.3695 30.1484 19.6401 29.9328 20.0001 29.7917L45.5834 20.2917C45.9167 20.1528 46.2362 20.125 46.5417 20.2084C46.8473 20.2917 47.1112 20.4445 47.3334 20.6667C47.5556 20.8889 47.7084 21.1528 47.7917 21.4584C47.8751 21.7639 47.8473 22.0834 47.7084 22.4167L38.2084 48C38.0695 48.3612 37.8545 48.6323 37.5634 48.8134C37.2723 48.9945 36.9734 49.0845 36.6667 49.0834C36.3601 49.0823 36.0617 48.9989 35.7717 48.8334C35.4817 48.6678 35.2662 48.4039 35.1251 48.0417L30.7501 37.25Z" fill="#97AFE3"/>
</svg>
