<svg width="22" height="22" viewBox="0 0 22 22" fill="none" xmlns="http://www.w3.org/2000/svg">
<path d="M11.5929 21.2579L11.5819 21.2599L11.5109 21.2949L11.4909 21.2989L11.4769 21.2949L11.4059 21.2599C11.3953 21.2566 11.3873 21.2583 11.3819 21.2649L11.3779 21.2749L11.3609 21.7029L11.3659 21.7229L11.3759 21.7359L11.4799 21.8099L11.4949 21.8139L11.5069 21.8099L11.6109 21.7359L11.6229 21.7199L11.6269 21.7029L11.6099 21.2759C11.6073 21.2653 11.6016 21.2593 11.5929 21.2579ZM11.8579 21.1449L11.8449 21.1469L11.6599 21.2399L11.6499 21.2499L11.6469 21.2609L11.6649 21.6909L11.6699 21.7029L11.6779 21.7099L11.8789 21.8029C11.8916 21.8063 11.9013 21.8036 11.9079 21.7949L11.9119 21.7809L11.8779 21.1669C11.8746 21.1549 11.8679 21.1476 11.8579 21.1449ZM11.1429 21.1469C11.1385 21.1443 11.1333 21.1434 11.1282 21.1445C11.1232 21.1456 11.1188 21.1487 11.1159 21.1529L11.1099 21.1669L11.0759 21.7809C11.0766 21.7929 11.0823 21.8009 11.0929 21.8049L11.1079 21.8029L11.3089 21.7099L11.3189 21.7019L11.3229 21.6909L11.3399 21.2609L11.3369 21.2489L11.3269 21.2389L11.1429 21.1469Z" fill="#7E7E7E"/>
<path d="M9.91998 0.86795C10.03 0.679109 10.1877 0.522424 10.3772 0.413523C10.5667 0.304623 10.7814 0.247314 11 0.247314C11.2186 0.247314 11.4333 0.304623 11.6228 0.413523C11.8123 0.522424 11.9699 0.679109 12.08 0.86795L14.875 5.66595L20.303 6.84195C20.5165 6.88835 20.7141 6.9899 20.8761 7.13648C21.0382 7.28307 21.159 7.46956 21.2264 7.67737C21.2939 7.88519 21.3058 8.10706 21.2608 8.32087C21.2158 8.53468 21.1155 8.73296 20.97 8.89595L17.27 13.0369L17.83 18.562C17.8521 18.7795 17.8167 18.9991 17.7274 19.1987C17.6381 19.3983 17.498 19.571 17.3211 19.6995C17.1442 19.828 16.9367 19.9079 16.7192 19.9312C16.5018 19.9544 16.2821 19.9202 16.082 19.832L11 17.5919L5.91799 19.832C5.7179 19.9202 5.49818 19.9544 5.28074 19.9312C5.0633 19.9079 4.85577 19.828 4.67886 19.6995C4.50195 19.571 4.36185 19.3983 4.27255 19.1987C4.18326 18.9991 4.14789 18.7795 4.16999 18.562L4.72999 13.0369L1.02999 8.89695C0.884213 8.73398 0.783741 8.53561 0.738599 8.32167C0.693457 8.10772 0.705225 7.88568 0.772729 7.6777C0.840232 7.46973 0.961109 7.2831 1.12329 7.13645C1.28547 6.98979 1.48329 6.88825 1.69699 6.84195L7.12499 5.66595L9.91998 0.86795Z" fill="#7E7E7E"/>
</svg>
