<svg width="806" height="175" viewBox="0 0 806 175" fill="none" xmlns="http://www.w3.org/2000/svg">
<g clip-path="url(#clip0_50_92)">
<path d="M0 31H31.15L42.34 113.74L45.94 113.5L59 31H84L96.53 110.14L100.15 109.9L112 0H143L117.07 144.05L84.75 146.2L73.07 72.5H69.93L57.97 147.98L27.5 150L0 31Z" fill="#7E7E7E"/>
<path d="M153.16 31L133.07 144H157.27L160 125.74H182.9L185.57 144H210L189.68 31H153.16ZM163.05 105.19L170.05 58.19H173.05L179.93 105.19H163.05Z" fill="#7E7E7E"/>
<path d="M479.68 31H443.16L423.07 144H447.27L450 125.74H472.9L475.57 144H500L479.68 31ZM453.05 105.19L460.05 58.19H463.05L469.93 105.19H453.05Z" fill="#7E7E7E"/>
<path d="M305 29.8601C282.73 29.8601 272.06 41.9601 272.06 60.6801V114.32C272.06 133.04 282.73 145.14 305 145.14C327.27 145.14 337.94 133.04 337.94 114.32V94.9201H313.18V116.61C313.18 122.54 310.91 124.61 305 124.61C299.09 124.61 296.82 122.55 296.82 116.61V58.3901C296.82 52.4601 299.09 50.3901 305 50.3901C310.91 50.3901 313.18 52.4501 313.18 58.3901V71.1801H337.94V60.6801C337.94 42.0001 327.27 29.8601 305 29.8601Z" fill="#7E7E7E"/>
<path d="M203.3 54.51H223.7V144H248.3V54.51H266.3V31H203.3V54.51Z" fill="#7E7E7E"/>
<path d="M391.23 75.72H373.61V31H348.85V144H373.61V98.72H391.23V144H415.99V31H391.23V75.72Z" fill="#7E7E7E"/>
<path d="M531 31H558C569.37 31 576.57 34.2 579.77 41.41C581.53 45.25 581.85 48.61 581.85 61.09C581.85 73.57 581.53 76.94 579.77 80.94C576.57 87.94 569.37 91.18 558 91.18H545.73V144H531V31ZM554.37 77.9C560.45 77.9 564.29 76.78 566.06 72.78C566.85 71.02 567.18 69.41 567.18 60.78C567.18 51.78 566.85 50.54 566.06 48.62C564.29 44.78 560.45 43.62 554.37 43.62H545.73V77.9H554.37Z" fill="#7E7E7E"/>
<path d="M593.1 31H634.55V44.45H607.83V77.26H634.07V90.86H607.83V130.55H634.55V144H593.1V31Z" fill="#7E7E7E"/>
<path d="M646.56 31H671.68C685.93 31 695.21 36.44 699.85 46.53C702.41 52.45 703.21 57.89 703.21 87.53C703.21 117.17 702.41 122.58 699.85 128.53C695.21 138.56 685.93 144 671.68 144H646.56V31ZM670.4 130.55C678.73 130.55 683.53 127.55 685.93 122.07C687.69 118.23 688.17 114.87 688.17 87.66C688.17 60.13 687.69 56.77 685.93 52.93C683.53 47.33 678.73 44.45 670.4 44.45H661.28V130.55H670.4Z" fill="#7E7E7E"/>
<path d="M717.14 31H731.86V144H717.14V31Z" fill="#7E7E7E"/>
<path d="M786.76 121.27H759.39L755.55 144H740.82L761.82 31H784.39L805.19 144H790.6L786.76 121.27ZM784.52 108.27L773.15 42.85H772.83L761.63 108.31L784.52 108.27Z" fill="#7E7E7E"/>
</g>
<defs>
<clipPath id="clip0_50_92">
<rect width="805.16" height="175" fill="white"/>
</clipPath>
</defs>
</svg>
